<?xml version="1.0" encoding="utf-8"?>
<!-- Generator: Adobe Illustrator 25.3.1, SVG Export Plug-In . SVG Version: 6.00 Build 0)  -->
<svg version="1.1" id="Layer_1" xmlns="http://www.w3.org/2000/svg" xmlns:xlink="http://www.w3.org/1999/xlink" x="0px" y="0px"
	 viewBox="0 0 380 400" style="enable-background:new 0 0 380 400;" xml:space="preserve">
<style type="text/css">
	.st0{fill:#009FE3;}
</style>
<rect x="0.1" y="0" width="380" height="400"/>
<g>
	<path class="st0" d="M162.3,113.7c0.4,0.7,0.9,1.2,1.6,1.2c0.6,0,1.2-0.4,1.6-1.1c0.2-0.3,0.4-0.8,0.5-1.2c0.2-0.4,0.3-0.8,0.4-1.3
		c0-0.1,0-0.3,0.1-0.7c0.1-0.3,0.2-0.8,0.3-1.3c0.1-0.3,0.1-0.5,0.2-0.9c0.1-0.3,0.2-0.6,0.3-1c0.2-0.7,0.4-1.4,0.7-2.2
		c0.2-0.7,0.5-1.5,0.8-2.3c-0.7-1-1.6-2-3-3c-0.7,1.3-1.3,2.6-1.8,3.8c-0.4,0.9-0.6,1.7-0.9,2.5c-0.1,0.4-0.3,0.7-0.4,1.1
		c-0.1,0.3-0.2,0.7-0.2,1c-0.1,0.6-0.3,1.1-0.4,1.5c-0.1,0.4-0.1,0.7-0.1,0.9c-0.1,0.6-0.1,1.2,0,1.7
		C161.9,112.9,162.1,113.3,162.3,113.7z"/>
	<path class="st0" d="M280.5,122.6c-0.4-0.4-0.9-0.7-1.3-1l-0.2-0.2l-0.1-0.3c-1.3-7-4.3-14.1-8.5-19.8c-2.3-2.7-5.2-5.6-9.4-5.8
		c-3.4,0-6.8,1.3-9.9,3.7c-4.5,3.3-8.1,7.7-10.4,12.5c-1.1,1.7-2,3.5-1.9,5.2c0,0.1-0.1,0.2-0.1,0.3l-0.1,0.3c0.1,0,0.1,0,0.2,0
		c0.1,0.8,0.5,1.6,1.2,2.4c3,3.5,6,6.8,3.3,11.6c3.6-2.5,4.8-6.8,7.5-10.1c2.2-2.7,5.1-3.9,8.2-4.9c1.4,0.2,2.8,0.5,4.2,0.8l2.5,0.5
		l-2.4,0.8c-2.4,0.8-4.4,2.1-5.9,4c-3.5,4.6-4.5,9.7-4.8,11.4c0,0.3-0.1,0.5-0.2,0.7c-0.1,0.8-0.4,6.4-0.3,7
		c0.1,1.2,0.2,1.9,0.3,2.3c0.2-0.3,0.4-0.9,0.7-2c0.6-1.7,1.2-3.7,1.6-5.1c0.2-0.8,0.4-1.2,0.5-1.5c0-0.1,0-0.2,0.1-0.3
		c0.2-1.1,0.9-4.3,2.4-7.4l0.9-1.9l0.3,2.1c1,6.3,9,5,13.1,2.7c1.6-0.9,2.5-2.4,3.6-3.7c0.7,0.9,0.8,2.1,0.7,3.5
		c-2,3.6-5.7,5.7-9.7,6.3c-4.1,0.6-7.7-1.3-9.6,3.7c-1,2.5-1.5,5.2-1.7,8c0,0,0,0,0.1,0c8.3,0,14.7-1.4,16.5-2
		c0.8-0.3,2-0.8,3.5-1.9c0.8-1.7,1.6-3.6,2.2-5.7c1.6-4,2.1-8.9,1.6-14.2l-0.1-1.3l1.1,0.7c3,1.9,6,3.3,8.1,4
		C286.8,126.9,284.2,125.3,280.5,122.6z M273.9,118.4c-7.6-3.7-16.6-5.3-20.1-5.7c-1.6-0.7-3.4-1.5-4-2.8c-0.8-1.8-0.6-3.5,0-5.1
		c0.8-0.8,1.6-1.5,2.4-2.2c3-2.4,5.8-3.6,8.3-3.6c2.7,0,5.1,1.4,7,4.1c3.2,4.2,5.7,9.2,7.3,14.5l0.4,1.4L273.9,118.4z"/>
	<path class="st0" d="M253.8,80.4c1,0,1.9,0,2.9,0c0.9-1.9,1.8-3.7,2.9-5.4c9.3-15.2,17.3-11.6,20.4-9.8c2.6,1.5-0.9,4.5-8.4,16.1
		c6.9,0.7,14.4,1.7,23.1,3.3c2.1-12.4-0.6-24.6-4.7-27.5c-6.2-4.4-24.5-1.5-34.1,14.2c-1.8,3-3.3,6-4.5,9.1
		C252.2,80.4,253,80.4,253.8,80.4z"/>
	<path class="st0" d="M220,107.1c0.1,0.4,0.2,0.8,0.2,1.1c0.1,0.3,0.2,0.7,0.2,1c0,0.3,0.1,0.6,0.1,0.9c0.1,0.5,0.1,1,0.2,1.3
		c0,0.3,0,0.6,0,0.7c0,0.5,0.1,0.9,0.3,1.3c0.1,0.5,0.3,0.9,0.5,1.3c0.4,0.7,1,1.2,1.6,1.2c0.7,0,1.3-0.4,1.7-1.1
		c0.2-0.4,0.4-0.8,0.5-1.3c0.1-0.5,0.1-1.2,0.1-1.8c0-0.2,0-0.5-0.1-0.9c-0.1-0.4-0.2-0.9-0.3-1.6c-0.1-0.3-0.1-0.7-0.2-1
		c-0.1-0.4-0.2-0.7-0.3-1.1c-0.1-0.4-0.2-0.8-0.4-1.2c-0.1-0.4-0.3-0.9-0.5-1.3c-0.6-1.6-1.4-3.4-2.3-5.2c-1.2,1.1-2.2,2.5-2.7,4.2
		c0.3,0.9,0.6,1.7,0.8,2.5C219.7,106.3,219.9,106.7,220,107.1z"/>
	<path class="st0" d="M212.7,85.8c-0.9-1.2-1.7-2.2-2.5-3.2c-2.1-2.6-3.6-4.3-3.9-4.1c-0.3,0.2,0.7,2.2,2.4,5.1
		c0.5,0.8,1,1.8,1.6,2.7c0.4-0.1,0.8-0.2,1.2-0.3C211.9,86,212.3,85.9,212.7,85.8z"/>
	<path class="st0" d="M254.2,202.9c4.2-3.8,7.3-11.4,7.9-18c0.6-7.1,0.1-14.6,0.6-20.2c0.2-1.9,0.4-3.4,0.7-4.7c-0.1,0-0.2,0-0.2,0
		c-2.5,0.1-4.7,0.1-6.9,0.1h0c-0.1,0-0.2,0-0.3,0c0.8,7.7,2.5,15.3,2.1,21.8C257.7,189.4,256.2,196.4,254.2,202.9z"/>
	<path class="st0" d="M249.7,79.7c-10.8-20-33.7-31.4-59.6-31.4c-25.3,0-46.9,10.9-57.9,30.2c0.9,0.1,19.2-24,58.4-24
		C227,54.5,249,79.7,249.7,79.7z"/>
	<path class="st0" d="M109.1,81.6c-6.3-10.2-9.1-15-6.7-16.4c3.1-1.8,11-7.1,20.4,8c1.4,2.2,2.6,4.7,3.6,7.2c1,0,2.1,0,3.1,0
		c0.7,0,1.4,0,2.1,0c-1.2-3.7-2.9-7.4-5.1-10.9C116.9,53.9,98.6,51,92.4,55.4c-4.2,3-7.1,16.3-4.3,29.3C95,83.5,102,82.4,109.1,81.6
		z"/>
	<path class="st0" d="M243.7,278.2c-5.1-13.1-7.1-26.3-8.3-41.4c-0.2-2.7-0.3-5.3-0.4-7.9c-0.2,0.2-0.4,0.4-0.6,0.6c0,0,0-0.1,0-0.1
		c-8,5.5-17.1,11.5-22.6,13.7c-10.1,4-20.9,5.7-31.4,1.9c-7.9-2.8-14.9-7.8-19.5-15c-1.4-2.1-2.5-4.4-3.4-6.7
		c-0.4-1-1.6-7.2-2.2-7.5c5.5,2.6,11.6,3.7,17.7,3.5c0.9,0.9,2.3,1.9,4,2.9c7.4,4.6,16.7,5.9,24.7,2.5c3.2-1.4,7-4.3,8.8-6.7
		c1.4,0.1,2.8,0.2,4.2,0.1c1.9,0,3.8-0.2,5.7-0.4c7.2-0.9,15.8-3.9,19.5-10.7c0.8-1.5,1.3-3.1,1.6-4.5c0.3-1.5,0.3-2.9,0-4.1
		c-0.2-1.2-0.7-2.2-1.2-2.9c-1.1-1.4-2.1-1.7-2.2-1.5c-0.2,0.2,0.4,0.9,0.9,2.2c0.2,0.7,0.4,1.5,0.4,2.4c0,1-0.2,2-0.6,3.2
		c-0.4,1.1-1,2.3-1.8,3.5c-2.8,3.9-7.5,5.6-12,6.4c-5.6,1-11.4,0.9-16.9-0.4c-5.3-1.2-8.7-4.3-13.2-7.1c-0.6-0.4-1.2-0.7-2-0.8
		c-0.9,0-1.7,0.5-2.4,1c-4.5,3.3-7.7,6.8-13.4,8.1c-7.2,1.6-14.9,1-21.6-2.1c-3.7-1.7-7.1-3.9-9.7-6.4c-1.3-1.3-2.5-2.6-3.3-4
		c-0.8-1.4-1.3-2.8-1.5-4.1c-0.3-2.7,0.8-5,1.7-6.5c0.2-0.4,0.4-0.7,0.6-1c0.2-0.3,0.4-0.5,0.5-0.7c0.3-0.4,0.4-0.7,0.3-0.8
		c-0.1-0.1-0.3,0-0.8,0.3c-0.2,0.1-0.5,0.3-0.8,0.5c-0.3,0.2-0.6,0.5-0.9,0.9c-0.4,0.3-0.7,0.8-1.1,1.2c-0.2,0.2-0.3,0.5-0.5,0.8
		c-0.2,0.3-0.4,0.5-0.5,0.9c-0.7,1.2-1.1,2.8-1.2,4.6c0,1.8,0.4,3.7,1.2,5.6c0.8,1.8,2,3.6,3.4,5.2c0.1,0.1,0.3,0.3,0.4,0.4
		c-0.1-0.1-0.3-0.1-0.4-0.1c-8.1-2.8-14.1-9.9-17.4-17.7c-4.3-10.5-1.4-19.8,1.9-29.1c-0.1,0-0.1,0-0.2,0c-2.1,0-4.4,0-6.9-0.1
		c-0.9,0-1.9-0.1-2.8-0.1c0.5,1.5,0.7,3.3,1,6c0.7,7.5-1.6,15.2-2,22.7c-0.4,9.5,1.9,18.6,5.8,27.2c1.9,4.2,4.3,8.3,6.7,12.2
		c2,3.3,6.7,11.7,6.7,11.7s3,19.5,8.9,43.8c10.6,43.6,27,102,26.4,85.2c-3.8-106,45.9-109.7,57.2-123.2
		c3.6,31.1,16.4,58.6,34.7,78.4c-3.1-4.9-5.6-10-7.9-15.2C250.8,299.2,246.5,288.1,243.7,278.2z"/>
	<path class="st0" d="M132.5,140.6c-0.2,2.8-2.8,5.4-4.7,7.8c1.1,0,2.2,0,3.3-0.1C131.9,145.8,132.3,143.2,132.5,140.6z"/>
	<path class="st0" d="M105,95.9c-3.8,1.2-7.3,2.2-9.3,5.8c2.4,3.2,5.1,6,7.9,8.1c-0.5-5.9,3.3-11.2,6.3-15
		C108.1,95.1,106.4,95.5,105,95.9z"/>
	<path class="st0" d="M177.6,82.7c-1,1.1-2.1,2.5-3.2,4c0.9,0.2,1.7,0.4,2.5,0.6c0.8-1.3,1.5-2.5,2.1-3.5c1.7-2.8,2.7-4.8,2.5-5
		C181.2,78.6,179.7,80.2,177.6,82.7z"/>
	<path class="st0" d="M278.4,95.9c-1.7-0.5-3.9-1-6.3-1.4c2.8,5.7,6.5,12.8,6.7,17c3.2-2.5,6.3-5.8,9-9.7
		C285.8,98.2,282.2,97.1,278.4,95.9z"/>
	<path class="st0" d="M123.9,141.6c-1.9-5-5.5-3.1-9.6-3.7c-4-0.6-7.8-2.7-9.7-6.2c-0.1-1.4,0-2.7,0.7-3.6c1.2,1.3,2,2.8,3.6,3.7
		c4.1,2.3,12.1,3.6,13.1-2.7l0.3-2.1l0.9,1.9c1.5,3.1,2.1,6.3,2.4,7.4c0,0.2,0.1,0.3,0.1,0.3c0.1,0.3,0.2,0.7,0.5,1.5
		c0.4,1.4,1,3.4,1.6,5.1c0.3,1,0.6,1.6,0.7,2c0.1-0.4,0.2-1.1,0.3-2.3c0.1-0.6-0.2-6.1-0.3-7c-0.1-0.2-0.1-0.4-0.2-0.7
		c-0.3-1.7-1.3-6.8-4.8-11.4c-1.5-1.9-3.5-3.2-5.9-4l-2.4-0.8l2.5-0.5c1.4-0.3,2.9-0.5,4.2-0.8c3.1,0.9,6,2.2,8.2,4.9
		c2.7,3.3,3.9,7.5,7.5,10.1c-2.7-4.8,0.4-8.1,3.3-11.6c0.7-0.8,1-1.6,1.2-2.4c0.1,0,0.1,0,0.2,0l-0.1-0.3c0-0.1,0-0.2-0.1-0.2
		c0.1-1.8-0.7-3.6-1.9-5.3c-2.3-4.9-6-9.3-10.4-12.5c-3.1-2.4-6.4-3.6-9.9-3.7c-4.2,0.3-7.1,3.1-9.4,5.8c-4.2,5.7-7.2,12.7-8.5,19.8
		l0,0.3l-0.2,0.2c-0.4,0.3-0.9,0.6-1.3,1c-3.7,2.7-6.3,4.4-8,5.5c2.1-0.8,5.1-2.2,8.1-4l1.1-0.7l-0.1,1.3c-0.5,5.3,0,10.2,1.6,14.2
		c0.1,0.3,0.2,0.6,0.3,0.9c3.2,3.5,6.2,5,7.6,5.5c1.6,0.6,7,1.7,14.1,2C125.2,146.1,124.7,143.8,123.9,141.6z M106.4,118.8
		c1.6-5.3,4.1-10.3,7.3-14.5c1.9-2.7,4.2-4.1,7-4.1c2.6,0,5.4,1.2,8.3,3.6c0.8,0.7,1.7,1.4,2.4,2.2c0.7,1.6,0.8,3.3,0,5.1
		c-0.6,1.3-2.4,2.2-4,2.8c-3.5,0.5-12.5,2-20.1,5.7l-1.3,0.6L106.4,118.8z"/>
</g>
<path class="st0" d="M309,95.9c-0.1-2.5-2-4.6-4.6-5.1c-36.3-7.2-60.4-9.2-93.3-0.8c-9,2.3-12.9,2.4-20.6,2.4
	c-7.7,0-11.6-0.1-20.6-2.4c-33.3-8.6-57.6-6.3-93.3,0.8c-2.6,0.5-4.5,2.6-4.6,5.1c-0.4,8.6-1,10.3,1.3,12.4c2.1,2,5.3,5.3,6.4,7.6
	c1.6,3.6,7.1,40.5,39.6,41.2c18.5,0.4,28.6-0.7,35.6-4.5c0,0,0-0.1-0.1-0.1c-1.1-2-2.8-3.5-4-5.4c-13.6,8-36.4,5.1-41.9,3.1
	c-5.7-2.1-15.7-9.5-18.9-30c-3.2-20.5,3.6-24.3,12.8-27.1c9.2-2.8,29.6-4.1,49.8-0.3c0,0,19.6,2.7,19.4,13.5c0,1.6-1.3,3.7-1.5,5.7
	c7-5.9,15.9-10.5,23.8-10.5c7.6,0,17.3,4,22.4,9.4c-0.1-1.3-0.8-3.5-0.8-4.6c-0.2-10.8,12.4-13.5,12.4-13.5
	c20.2-3.8,40.6-2.5,49.8,0.3c9.2,2.8,16,6.6,12.8,27.1c-3.2,20.5-13.1,27.9-18.9,30c-5.1,1.9-25,4.5-38.7-1.5
	c-0.5,0.6-1.1,1.2-1.7,1.7c-1.4,1.2-2.6,2.2-3.5,3.2c6.9,3,16.8,3.8,33.5,3.4c32.5-0.7,38-37.7,39.6-41.2c1.1-2.4,4.3-5.7,6.4-7.6
	C310,106.2,309.4,104.7,309,95.9z"/>
<path class="st0" d="M208.8,143.9c8.2-4.5,13.5,0.7,15.7-5.4c1.8-4.8-1.8-6.5-5.9-5.8c-8.3,1.4-22.9,13.6-25.4,22.8
	c-2.5-9.2-17.1-21.4-25.4-22.8c-4.1-0.7-7.7,1-5.9,5.8c2.3,6,7.5,0.8,15.7,5.4c7,3.9,13.7,10.5,15.5,12.4c0,0.2,0.4,0.2,0.4,0
	C195.1,154.4,201.8,147.7,208.8,143.9z"/>
<path class="st0" d="M227.9,150.3c1-0.7,2.1-1.3,3-2.2c1.5-1.4,2.6-3.2,3.4-5.1c2.3-5.8,0.5-12.3-3.4-16.9c-1.4-1.7-2.9-3-4.1-4.1
	c-4.1-3.5-8.2-6.9-12.2-10.4c-0.3-0.2-3.6-2.3-3.6-2.3s1.6,2.6,1.7,2.8c2,2.8,4.6,6.2,7.3,8.5c0.6,0.5,2.3,1.8,4.7,3.8
	c1.2,1,2.5,2.2,3.8,3.7c1.3,1.5,2.4,3.2,3.1,5.4c1.4,4.1,0.8,8.6-2.1,12c-2.8,3.3-6.9,4.8-11,5.6c-0.7,0.1-1.5,0.3-2.3,0.4
	c-1.5,0.3-3.1,0.6-4.6,0.9c-3.1,0.7-6.2,1.6-9,3.2c-2.8,1.6-5.1,3.9-6.6,6.5c-1.4,2.5-2.4,5.2-3,8c-0.1,0.7-0.2,1.3-0.3,2
	c-0.3-1.4-0.6-2.8-1.1-4.2c-1-2.9-2.4-5.9-4.7-8.4c-1.1-1.3-2.5-2.4-3.9-3.4c-0.4-0.2-0.8-0.5-1.2-0.7c-7.5-4.2-17.2-2.2-24.1-7.7
	c-4.6-3.7-6.3-10.2-4.1-15.7c1.1-2.7,2.8-5,4.7-6.8c2.5-2.4,5.6-3.6,8.6-5.4c4.2-2.6,8.1-6.4,10.6-10.7c-3.4,3.1-14.6,9.4-16.2,10.4
	c-5.9,3.7-11,9.3-11.4,16.6c-0.2,4.5,1.7,9.2,4.8,12.4c0.4,0.4,0.8,0.8,1.2,1.3c0.3,0.5,0.5,1,0.7,1.5c1.8,5.5,3.2,10.4,2.6,16.4
	c-0.3,2.9-1.2,5.8-2.3,8.6c0.3-0.8-2.6,6.3-2.5,6.4c0.2,0.1,1.2-1.7,2.7-4.4c1.5-2.8,1.8-3.6,3.2-7c0.6-1.5,1.4-3.3,2.4-4.5
	c0.9-1,1.9-1.9,2.9-2.7c1-0.8,2.1-1.5,3.3-2.1c0.4-0.2,0.8-0.4,1.2-0.5c4.3-1.6,9.5-1.2,13.6,0.7c1.4,0.6,2.8,1.3,3.9,2.3
	c1.2,1.1,1.9,2.5,2.5,4c1,2.7,1.6,5.4,1.9,8c0.1,0.5,0.5,14.9,0.5,15.5c0,1.7,0.2,2.4,0.3,2c0.1-0.1,0.1-0.6,0.1-1.4
	c0.1-0.7,0.1-1.6,0.2-2.6c0.1-2.5,0.3-11.9,0.3-12.2c0.1-2.2,0.4-4.7,1-7.2c0.3-1.2,0.5-2.3,1-3.5c0.6-1.3,1.5-2.3,2.7-3
	c1-0.7,2.1-1.2,3.3-1.6c2.3-0.8,4.8-1.2,7.3-1.1c1.8,0.1,3.5,0.4,5.1,1.1c3,1.2,5.9,4.4,8.4,8c2.3,3.4,3.4,7.7,5.4,10.4
	c-2-5.7-4.3-15.4-3.8-21.4c0.3-2.7,0.9-6,2.8-8.1C227.1,150.9,227.5,150.6,227.9,150.3z"/>
</svg>
