<svg id="Layer_1" data-name="Layer 1" xmlns="http://www.w3.org/2000/svg" viewBox="0 0 237.75 323.75"><defs><style>.cls-1{fill:#020000;}.cls-2{fill:#a31c1c;}</style></defs><g id="Layer_1-2" data-name="Layer 1"><path class="cls-1" d="M162.3,90a1.69,1.69,0,0,0,3.2.1,6.12,6.12,0,0,0,.5-1.2,5,5,0,0,0,.4-1.3,2.64,2.64,0,0,1,.1-.7,11.15,11.15,0,0,1,.3-1.3c.1-.3.1-.6.2-.9s.2-.6.3-1c.2-.7.4-1.4.7-2.2s.5-1.5.8-2.3a12.12,12.12,0,0,0-3-3c-.7,1.3-1.3,2.6-1.8,3.8-.4.9-.6,1.7-.9,2.4a4.87,4.87,0,0,1-.4,1.1,4.4,4.4,0,0,0-.2,1,15.46,15.46,0,0,1-.4,1.5,3.44,3.44,0,0,0-.1.9,4.84,4.84,0,0,0,0,1.7A2.09,2.09,0,0,0,162.3,90Z" transform="translate(-71.62 -24.7)"/><path class="cls-1" d="M280.5,98.9a11.32,11.32,0,0,0-1.3-1l-.2-.2v-.3a49.3,49.3,0,0,0-8.5-19.8c-2.3-2.7-5.2-5.6-9.4-5.8a16.24,16.24,0,0,0-9.9,3.7A33.74,33.74,0,0,0,240.8,88c-1.1,1.7-2,3.5-1.9,5.2,0,.1-.1.2-.1.3l-.1.2h.2a4.55,4.55,0,0,0,1.2,2.4c3,3.5,6,6.8,3.3,11.6,3.6-2.5,4.8-6.8,7.5-10.1,2.2-2.7,5.1-3.9,8.2-4.9a31,31,0,0,1,4.2.8l2.5.5-2.4.8a12.23,12.23,0,0,0-5.9,4,26.77,26.77,0,0,0-4.8,11.4,6.37,6.37,0,0,1-.2.7c-.1.8-.4,6.4-.3,7a16.21,16.21,0,0,0,.3,2.3,8.16,8.16,0,0,0,.7-2c.6-1.7,1.2-3.7,1.6-5.1a12.43,12.43,0,0,1,.5-1.5.37.37,0,0,1,.1-.3,31.08,31.08,0,0,1,2.4-7.4l.9-1.9.3,2.1c1,6.3,9,5,13.1,2.8,1.6-.9,2.5-2.4,3.6-3.7a5,5,0,0,1,.7,3.5,12.67,12.67,0,0,1-9.7,6.2c-4.1.6-7.7-1.3-9.6,3.7a27.21,27.21,0,0,0-1.7,8h.1a61.6,61.6,0,0,0,16.5-2,18.25,18.25,0,0,0,3.5-1.9,37.65,37.65,0,0,0,2.2-5.7,30.82,30.82,0,0,0,1.6-14.2l-.1-1.3,1.1.7a39.79,39.79,0,0,0,8.1,4A88.59,88.59,0,0,1,280.5,98.9Zm-6.6-4.2c-7.6-3.7-16.6-5.2-20.1-5.7-1.6-.7-3.4-1.5-4-2.8a6.45,6.45,0,0,1,0-5.1c.8-.8,1.6-1.5,2.4-2.2,2.9-2.4,5.8-3.6,8.3-3.6,2.7,0,5.1,1.4,7,4.1a46,46,0,0,1,7.3,14.5l.4,1.4Z" transform="translate(-71.62 -24.7)"/><path class="cls-1" d="M253.8,56.8h2.9a46.29,46.29,0,0,1,2.9-5.4c9.3-15.2,17.3-11.6,20.4-9.8,2.6,1.5-.9,4.5-8.4,16.1,6.9.7,14.4,1.7,23,3.3,2.1-12.4-.6-24.6-4.7-27.5-6.2-4.4-24.5-1.5-34.1,14.2a48.43,48.43,0,0,0-4.4,9.2A19.27,19.27,0,0,1,253.8,56.8Z" transform="translate(-71.62 -24.7)"/><path class="cls-1" d="M220,83.4a5.16,5.16,0,0,1,.2,1.1c.1.4.1.7.2,1s.1.6.1.9c.1.5.1,1,.2,1.3v.7a2.77,2.77,0,0,0,.3,1.3,6.94,6.94,0,0,0,.5,1.3,2.07,2.07,0,0,0,1.6,1.2,2,2,0,0,0,1.7-1.1c.2-.4.4-.8.6-1.3a10.87,10.87,0,0,0,.1-1.8,3.44,3.44,0,0,0-.1-.9,15.69,15.69,0,0,1-.3-1.6c-.1-.3-.1-.7-.2-1s-.2-.7-.3-1.1a5.64,5.64,0,0,0-.4-1.2,6.94,6.94,0,0,0-.5-1.3,55.65,55.65,0,0,0-2.3-5.2,9.27,9.27,0,0,0-2.7,4.2c.3.9.6,1.7.8,2.4A3.7,3.7,0,0,1,220,83.4Z" transform="translate(-71.62 -24.7)"/><path class="cls-1" d="M212.7,62.1c-.9-1.2-1.8-2.2-2.5-3.2-2.1-2.6-3.6-4.3-3.9-4.1s.7,2.2,2.4,5.2c.5.8,1,1.8,1.6,2.7l1.2-.3Z" transform="translate(-71.62 -24.7)"/><path class="cls-1" d="M254.1,179.2c4.2-3.8,7.4-11.4,7.9-18,.6-7.1.1-14.6.6-20.1a39.89,39.89,0,0,1,.7-4.7h-.2c-2.5.1-4.7.1-6.9.1h-.3c.8,7.7,2.5,15.3,2.1,21.8A81.55,81.55,0,0,1,254.1,179.2Z" transform="translate(-71.62 -24.7)"/><path class="cls-1" d="M249.7,56.1c-10.8-20-33.7-31.4-59.6-31.4-25.4,0-46.9,10.9-57.9,30.2.9.1,19.2-24,58.4-24C227,30.8,249,56,249.7,56.1Z" transform="translate(-71.62 -24.7)"/><path class="cls-1" d="M109.2,57.9c-6.3-10.2-9.1-15-6.7-16.4,3.2-1.8,11-7.1,20.4,8a44,44,0,0,1,3.6,7.2h5.2a48.91,48.91,0,0,0-5.1-10.9C117,30.1,98.7,27.2,92.5,31.6c-4.2,3-7.1,16.3-4.3,29.3C95,59.8,102,58.7,109.2,57.9Z" transform="translate(-71.62 -24.7)"/><path class="cls-1" d="M243.7,254.6c-5.1-13.1-7.1-26.3-8.3-41.4-.2-2.6-.4-5.3-.4-7.9l-.6.6v-.1c-8.1,5.5-17.1,11.5-22.6,13.7-10.1,4-20.9,5.7-31.4,1.9a37.72,37.72,0,0,1-19.5-15,35.18,35.18,0,0,1-3.4-6.7c-.4-1-1.6-7.2-2.2-7.5a38.44,38.44,0,0,0,17.7,3.5,25.76,25.76,0,0,0,4,3c7.4,4.6,16.7,5.9,24.7,2.5a25.09,25.09,0,0,0,8.8-6.7,29.46,29.46,0,0,0,4.2.1,54.59,54.59,0,0,0,5.7-.4c7.2-1,15.8-3.9,19.4-10.7a17.43,17.43,0,0,0,1.6-4.5,9.42,9.42,0,0,0,0-4.1,7.05,7.05,0,0,0-1.2-2.9c-1.1-1.4-2.1-1.7-2.2-1.5s.4.9.9,2.2a8.6,8.6,0,0,1,.4,2.4,9.48,9.48,0,0,1-.6,3.2,16.67,16.67,0,0,1-1.8,3.5c-2.8,3.9-7.4,5.6-12,6.4a41.82,41.82,0,0,1-16.9-.4c-5.3-1.2-8.7-4.4-13.2-7.1a4.45,4.45,0,0,0-2-.8,4.29,4.29,0,0,0-2.4,1c-4.5,3.4-7.7,6.8-13.4,8.1a34.1,34.1,0,0,1-21.6-2.1,39.5,39.5,0,0,1-9.8-6.4,24.14,24.14,0,0,1-3.3-4,12.08,12.08,0,0,1-1.5-4.1,10.46,10.46,0,0,1,1.7-6.5,8.79,8.79,0,0,1,.6-1c.2-.3.4-.5.5-.7.3-.4.4-.7.3-.8s-.4,0-.8.3a9.22,9.22,0,0,0-.8.5,3.82,3.82,0,0,0-.9.9,13.07,13.07,0,0,0-1.1,1.2,5.58,5.58,0,0,0-.5.8,2.62,2.62,0,0,0-.5.9,10.38,10.38,0,0,0-1.2,4.6,12.87,12.87,0,0,0,1.2,5.6,21.14,21.14,0,0,0,3.4,5.2l.4.4a.6.6,0,0,0-.4-.1c-8.1-2.8-14.1-9.9-17.4-17.7-4.3-10.5-1.4-19.8,1.8-29.1h-.2c-2.1,0-4.4,0-6.9-.1-.9,0-1.9-.1-2.8-.1a24.61,24.61,0,0,1,1,6c.7,7.5-1.6,15.2-2,22.7-.4,9.4,1.9,18.6,5.8,27.2a110.94,110.94,0,0,0,6.7,12.2c2,3.3,6.7,11.7,6.7,11.7s2.9,19.5,8.9,43.8c10.6,43.6,27,102,26.4,85.2-3.8-106,45.9-109.7,57.2-123.2,3.6,31.1,16.4,58.6,34.7,78.4a115.48,115.48,0,0,1-7.9-15.2C250.8,275.5,246.5,264.5,243.7,254.6Z" transform="translate(-71.62 -24.7)"/><path class="cls-1" d="M132.5,116.9c-.2,2.8-2.8,5.4-4.7,7.8,1.1,0,2.2,0,3.3-.1A32.72,32.72,0,0,0,132.5,116.9Z" transform="translate(-71.62 -24.7)"/><path class="cls-1" d="M105.1,72.2c-3.8,1.1-7.3,2.2-9.3,5.8a40.62,40.62,0,0,0,7.9,8.1c-.5-5.9,3.3-11.2,6.3-15A36.49,36.49,0,0,0,105.1,72.2Z" transform="translate(-71.62 -24.7)"/><path class="cls-1" d="M177.6,59c-1,1.2-2.1,2.5-3.2,4,.9.2,1.7.4,2.5.6.8-1.3,1.5-2.4,2.1-3.5,1.7-2.8,2.7-4.8,2.4-5S179.7,56.5,177.6,59Z" transform="translate(-71.62 -24.7)"/><path class="cls-1" d="M278.4,72.2a55.37,55.37,0,0,0-6.3-1.4c2.9,5.7,6.5,12.8,6.7,17a44.44,44.44,0,0,0,9-9.7C285.8,74.5,282.2,73.4,278.4,72.2Z" transform="translate(-71.62 -24.7)"/><path class="cls-1" d="M123.9,117.9c-1.9-5-5.5-3.1-9.6-3.7s-7.8-2.7-9.7-6.2a5.23,5.23,0,0,1,.7-3.6c1.2,1.3,2,2.8,3.7,3.7,4.1,2.3,12.1,3.6,13.1-2.8l.3-2.1.9,1.9a38.84,38.84,0,0,1,2.4,7.4.44.44,0,0,0,.1.3c.1.3.2.7.5,1.5.4,1.4,1,3.4,1.6,5.1.3,1.1.6,1.6.7,2a16.21,16.21,0,0,0,.3-2.3c.1-.6-.2-6.1-.3-7a6.37,6.37,0,0,1-.2-.7,26.77,26.77,0,0,0-4.8-11.4,12.42,12.42,0,0,0-5.8-4l-2.4-.8,2.5-.5c1.4-.3,2.9-.6,4.2-.8,3.1.9,6,2.2,8.2,4.9,2.7,3.3,3.9,7.5,7.5,10.1-2.7-4.8.4-8.1,3.3-11.6a5.43,5.43,0,0,0,1.2-2.4h.2l-.1-.2c0-.1,0-.1-.1-.2a8.62,8.62,0,0,0-1.9-5.3A34.22,34.22,0,0,0,130,76.6a16.64,16.64,0,0,0-9.9-3.7c-4.2.3-7.1,3.1-9.4,5.8a50.28,50.28,0,0,0-8.6,19.8l-.1.3V99a11.32,11.32,0,0,0-1.3,1c-3.7,2.7-6.3,4.4-8,5.5a54.12,54.12,0,0,0,8.1-4l1.2-.7-.1,1.3a30.82,30.82,0,0,0,1.6,14.2l.3.9a20.22,20.22,0,0,0,7.6,5.5c1.6.6,7,1.7,14.1,2A32,32,0,0,0,123.9,117.9ZM106.4,95.1a46,46,0,0,1,7.3-14.5c1.9-2.7,4.2-4.1,7-4.1,2.6,0,5.4,1.2,8.3,3.6a17,17,0,0,1,2.4,2.2,5.71,5.71,0,0,1,0,5.1c-.6,1.3-2.4,2.2-4,2.8a69,69,0,0,0-20.1,5.7l-1.3.6Z" transform="translate(-71.62 -24.7)"/><path class="cls-2" d="M309,72.2a5.52,5.52,0,0,0-4.6-5.1c-36.3-7.2-60.4-9.2-93.3-.8-9,2.3-12.9,2.4-20.6,2.4a64.41,64.41,0,0,1-20.6-2.4c-33.3-8.6-57.6-6.3-93.3.8A5.52,5.52,0,0,0,72,72.2c-.4,8.6-1,10.3,1.3,12.4,2.1,1.9,5.3,5.3,6.4,7.6,1.6,3.6,7.1,40.5,39.6,41.2,18.5.4,28.6-.7,35.6-4.4a.1.1,0,0,0-.1-.1c-1.1-2-2.8-3.5-4.1-5.4-13.6,8-36.4,5.1-41.9,3.1-5.7-2.1-15.7-9.5-18.9-30s3.6-24.3,12.8-27.1,29.6-4.1,49.8-.3c0,0,19.6,2.7,19.4,13.5,0,1.6-1.3,3.7-1.6,5.7,7-5.9,15.9-10.5,23.8-10.5,7.6,0,17.3,4,22.4,9.4-.1-1.3-.8-3.5-.8-4.6-.1-10.8,12.4-13.5,12.4-13.5,20.2-3.8,40.6-2.5,49.8.3s16,6.6,12.8,27.1-13.1,27.9-18.9,30c-5.1,1.9-25,4.5-38.7-1.5-.5.6-1.1,1.2-1.6,1.7A39.29,39.29,0,0,0,228,130c6.9,3,16.8,3.8,33.5,3.4,32.5-.7,38-37.7,39.6-41.2,1-2.4,4.3-5.7,6.4-7.6C310,82.5,309.4,81,309,72.2Z" transform="translate(-71.62 -24.7)"/><path class="cls-1" d="M208.8,120.2c8.2-4.5,13.5.7,15.7-5.4,1.8-4.8-1.8-6.5-5.9-5.8-8.3,1.4-22.9,13.6-25.4,22.8-2.5-9.2-17.1-21.4-25.4-22.8-4.1-.7-7.7,1-5.9,5.8,2.3,6,7.6.8,15.7,5.4,7,3.9,13.7,10.6,15.5,12.4,0,.2.4.2.4,0A67.38,67.38,0,0,1,208.8,120.2Z" transform="translate(-71.62 -24.7)"/><path class="cls-1" d="M227.9,126.7a21,21,0,0,0,3-2.2,14.73,14.73,0,0,0,3.4-5.1c2.3-5.8.5-12.2-3.4-16.9a39.46,39.46,0,0,0-4.1-4.1c-4.1-3.5-8.2-6.9-12.2-10.4L211,85.7s1.6,2.6,1.7,2.8A49,49,0,0,0,220,97c.6.5,2.3,1.8,4.7,3.8a32.44,32.44,0,0,1,3.8,3.7,15,15,0,0,1,3.1,5.4,12.17,12.17,0,0,1-2.1,12c-2.8,3.3-6.9,4.8-11,5.6-.8.1-1.5.3-2.2.4l-4.6.9a32.24,32.24,0,0,0-9,3.2,17.9,17.9,0,0,0-6.6,6.5,25.63,25.63,0,0,0-2.9,8c-.1.7-.2,1.3-.3,2a32.51,32.51,0,0,0-1.1-4.2,23.46,23.46,0,0,0-4.7-8.4,18.34,18.34,0,0,0-3.9-3.4c-.4-.2-.8-.5-1.2-.7-7.5-4.2-17.2-2.2-24.1-7.7a13.8,13.8,0,0,1-4.1-15.7,19.68,19.68,0,0,1,4.7-6.8c2.5-2.4,5.6-3.6,8.6-5.4a31.9,31.9,0,0,0,10.6-10.7c-3.4,3.1-14.6,9.4-16.2,10.4-5.9,3.7-11,9.3-11.4,16.6a17.28,17.28,0,0,0,4.8,12.4,6.89,6.89,0,0,1,1.1,1.3,10.09,10.09,0,0,1,.7,1.5c1.9,5.6,3.2,10.4,2.6,16.4a33.22,33.22,0,0,1-2.3,8.6c.3-.8-2.6,6.3-2.5,6.4a26.11,26.11,0,0,0,2.7-4.4,57.93,57.93,0,0,0,3.2-7,17.64,17.64,0,0,1,2.4-4.5,24.43,24.43,0,0,1,2.9-2.7,18.52,18.52,0,0,1,3.3-2.1,6.12,6.12,0,0,1,1.2-.5,18.79,18.79,0,0,1,13.6.7,13.84,13.84,0,0,1,3.9,2.3,10.42,10.42,0,0,1,2.5,4,34.36,34.36,0,0,1,1.9,8c.1.5.5,14.9.5,15.5,0,1.7.2,2.4.3,2a3.83,3.83,0,0,0,.1-1.4c.1-.7.1-1.6.2-2.6.1-2.5.3-11.9.3-12.2a38.83,38.83,0,0,1,1-7.2,23,23,0,0,1,1-3.5,6.57,6.57,0,0,1,2.7-3,12.62,12.62,0,0,1,3.3-1.6,19.92,19.92,0,0,1,7.3-1.1,14.55,14.55,0,0,1,5.1,1.1c3,1.2,5.9,4.4,8.4,8,2.3,3.4,3.4,7.7,5.4,10.4-2.1-5.7-4.3-15.4-3.8-21.4.2-2.7.9-6.1,2.8-8.1A4,4,0,0,1,227.9,126.7Z" transform="translate(-71.62 -24.7)"/></g></svg>