<?xml version="1.0" encoding="utf-8"?>
<!-- Generator: Adobe Illustrator 25.3.1, SVG Export Plug-In . SVG Version: 6.00 Build 0)  -->
<svg version="1.1" id="Layer_1" xmlns="http://www.w3.org/2000/svg" xmlns:xlink="http://www.w3.org/1999/xlink" x="0px" y="0px"
	 viewBox="0 0 380 442.3" style="enable-background:new 0 0 380 442.3;" xml:space="preserve">
<style type="text/css">
	.st0{fill:#020000;}
	.st1{fill:#A31C1C;}
	.st2{font-family:'AlegreyaSansSC-Black';}
	.st3{font-size:56.9758px;}
</style>
<g id="Layer_1_1_">
	<g>
		<path class="st0" d="M162.3,156c0.4,0.7,0.9,1.2,1.6,1.2c0.6,0,1.2-0.4,1.6-1.1c0.2-0.4,0.4-0.8,0.5-1.2c0.2-0.4,0.3-0.8,0.4-1.3
			c0-0.1,0-0.3,0.1-0.7c0.1-0.3,0.1-0.8,0.3-1.3c0.1-0.3,0.1-0.6,0.2-0.9c0.1-0.3,0.2-0.6,0.3-1c0.2-0.7,0.4-1.4,0.7-2.2
			c0.2-0.7,0.5-1.5,0.8-2.3c-0.7-1-1.6-2-3-3c-0.7,1.3-1.3,2.6-1.8,3.8c-0.4,0.9-0.6,1.7-0.9,2.4c-0.1,0.4-0.2,0.7-0.4,1.1
			c-0.1,0.4-0.2,0.7-0.2,1c-0.1,0.6-0.3,1.1-0.4,1.5c-0.1,0.4-0.1,0.7-0.1,0.9c-0.1,0.6-0.1,1.2,0,1.7
			C161.9,155.2,162.1,155.6,162.3,156z"/>
		<path class="st0" d="M280.5,164.9c-0.4-0.4-0.9-0.7-1.3-1l-0.2-0.2l0-0.3c-1.3-7-4.3-14.1-8.5-19.8c-2.3-2.7-5.2-5.6-9.4-5.8
			c-3.4,0-6.8,1.3-9.9,3.7c-4.5,3.3-8.1,7.7-10.4,12.5c-1.1,1.7-2,3.5-1.9,5.2c0,0.1-0.1,0.2-0.1,0.3l-0.1,0.2c0.1,0,0.1,0,0.2,0
			c0.1,0.8,0.5,1.6,1.2,2.4c3,3.5,6,6.8,3.3,11.6c3.6-2.5,4.8-6.8,7.5-10.1c2.2-2.7,5.1-3.9,8.2-4.9c1.4,0.2,2.8,0.4,4.2,0.8
			l2.5,0.5l-2.4,0.8c-2.4,0.8-4.4,2.1-5.9,4c-3.5,4.6-4.5,9.7-4.8,11.4c-0.1,0.3-0.1,0.5-0.2,0.7c-0.1,0.8-0.4,6.4-0.3,7
			c0.1,1.2,0.2,1.9,0.3,2.3c0.2-0.3,0.4-0.9,0.7-2c0.6-1.7,1.2-3.7,1.6-5.1c0.2-0.8,0.4-1.2,0.5-1.5c0-0.1,0-0.2,0.1-0.3
			c0.2-1.1,0.9-4.3,2.4-7.4l0.9-1.9l0.3,2.1c1,6.3,9,5,13.1,2.8c1.6-0.9,2.5-2.4,3.6-3.7c0.7,0.9,0.8,2.1,0.7,3.5
			c-2,3.6-5.7,5.7-9.7,6.2c-4.1,0.6-7.7-1.3-9.6,3.7c-1,2.6-1.5,5.2-1.7,8c0,0,0.1,0,0.1,0c8.3,0,14.7-1.4,16.5-2
			c0.8-0.3,2-0.9,3.5-1.9c0.8-1.7,1.6-3.6,2.2-5.7c1.6-4,2.1-8.9,1.6-14.2l-0.1-1.3l1.1,0.7c3,1.9,6,3.3,8.1,4
			C286.8,169.3,284.2,167.6,280.5,164.9z M273.9,160.7c-7.6-3.7-16.6-5.2-20.1-5.7c-1.6-0.7-3.4-1.5-4-2.8c-0.8-1.8-0.6-3.5,0-5.1
			c0.8-0.8,1.6-1.5,2.4-2.2c2.9-2.4,5.8-3.6,8.3-3.6c2.7,0,5.1,1.4,7,4.1c3.2,4.2,5.7,9.2,7.3,14.5l0.4,1.4L273.9,160.7z"/>
		<path class="st0" d="M253.8,122.8c1,0,1.9,0,2.9,0c0.9-1.9,1.8-3.7,2.9-5.4c9.3-15.2,17.3-11.6,20.4-9.8c2.6,1.5-0.9,4.5-8.4,16.1
			c6.9,0.7,14.4,1.7,23,3.3c2.1-12.4-0.6-24.6-4.7-27.5c-6.2-4.4-24.5-1.5-34.1,14.2c-1.8,3-3.3,6-4.4,9.2
			C252.2,122.8,253,122.8,253.8,122.8z"/>
		<path class="st0" d="M220,149.4c0.1,0.4,0.2,0.8,0.2,1.1c0.1,0.4,0.1,0.7,0.2,1c0,0.3,0.1,0.6,0.1,0.9c0.1,0.5,0.1,1,0.2,1.3
			c0,0.3,0,0.6,0,0.7c0,0.5,0.1,0.9,0.3,1.3c0.1,0.4,0.3,0.9,0.5,1.3c0.4,0.7,1,1.2,1.6,1.2c0.7,0,1.3-0.4,1.7-1.1
			c0.2-0.4,0.4-0.8,0.6-1.3c0.1-0.6,0.1-1.2,0.1-1.8c0-0.2,0-0.5-0.1-0.9c-0.1-0.4-0.2-0.9-0.3-1.6c-0.1-0.3-0.1-0.7-0.2-1
			c-0.1-0.4-0.2-0.7-0.3-1.1c-0.1-0.4-0.2-0.8-0.4-1.2c-0.1-0.4-0.3-0.9-0.5-1.3c-0.6-1.6-1.4-3.4-2.3-5.2c-1.2,1.1-2.2,2.5-2.7,4.2
			c0.3,0.9,0.6,1.7,0.8,2.4C219.7,148.6,219.9,149,220,149.4z"/>
		<path class="st0" d="M212.7,128.1c-0.9-1.2-1.8-2.2-2.5-3.2c-2.1-2.6-3.6-4.3-3.9-4.1s0.7,2.2,2.4,5.2c0.5,0.8,1,1.8,1.6,2.7
			c0.4-0.1,0.8-0.2,1.2-0.3C211.9,128.3,212.3,128.2,212.7,128.1z"/>
		<path class="st0" d="M254.1,245.2c4.2-3.8,7.4-11.4,7.9-18c0.6-7.1,0.1-14.6,0.6-20.1c0.2-1.9,0.4-3.4,0.7-4.7c-0.1,0-0.1,0-0.2,0
			c-2.5,0.1-4.7,0.1-6.9,0.1l0,0c-0.1,0-0.2,0-0.3,0c0.8,7.7,2.5,15.3,2.1,21.8C257.6,231.8,256.2,238.7,254.1,245.2z"/>
		<path class="st0" d="M249.7,122.1c-10.8-20-33.7-31.4-59.6-31.4c-25.4,0-46.9,10.9-57.9,30.2c0.9,0.1,19.2-24,58.4-24
			C227,96.8,249,122,249.7,122.1z"/>
		<path class="st0" d="M109.2,123.9c-6.3-10.2-9.1-15-6.7-16.4c3.2-1.8,11-7.1,20.4,8c1.4,2.2,2.6,4.7,3.6,7.2c1,0,2.1,0,3.1,0
			c0.7,0,1.4,0,2.1,0c-1.2-3.7-2.9-7.4-5.1-10.9c-9.6-15.7-27.9-18.6-34.1-14.2c-4.2,3-7.1,16.3-4.3,29.3
			C95,125.8,102,124.7,109.2,123.9z"/>
		<path class="st0" d="M243.7,320.6c-5.1-13.1-7.1-26.3-8.3-41.4c-0.2-2.6-0.4-5.3-0.4-7.9c-0.2,0.2-0.4,0.4-0.6,0.6
			c0,0,0-0.1,0-0.1c-8.1,5.5-17.1,11.5-22.6,13.7c-10.1,4-20.9,5.7-31.4,1.9c-7.9-2.8-14.9-7.8-19.5-15c-1.4-2.1-2.5-4.4-3.4-6.7
			c-0.4-1-1.6-7.2-2.2-7.5c5.5,2.6,11.6,3.7,17.7,3.5c0.9,0.9,2.3,1.9,4,3c7.4,4.6,16.7,5.9,24.7,2.5c3.2-1.4,7-4.3,8.8-6.7
			c1.4,0.1,2.8,0.2,4.2,0.1c1.9,0,3.8-0.2,5.7-0.4c7.2-1,15.8-3.9,19.4-10.7c0.8-1.5,1.3-3.1,1.6-4.5c0.3-1.5,0.3-2.9,0-4.1
			c-0.2-1.2-0.7-2.2-1.2-2.9c-1.1-1.4-2.1-1.7-2.2-1.5c-0.2,0.2,0.4,0.9,0.9,2.2c0.2,0.7,0.4,1.5,0.4,2.4c0,1-0.2,2.1-0.6,3.2
			c-0.4,1.1-1,2.3-1.8,3.5c-2.8,3.9-7.4,5.6-12,6.4c-5.6,1-11.4,0.9-16.9-0.4c-5.3-1.2-8.7-4.4-13.2-7.1c-0.6-0.4-1.2-0.7-2-0.8
			c-0.9,0-1.7,0.5-2.4,1c-4.5,3.4-7.7,6.8-13.4,8.1c-7.2,1.6-14.9,1-21.6-2.1c-3.6-1.7-7.1-3.9-9.8-6.4c-1.3-1.3-2.4-2.6-3.3-4
			c-0.8-1.4-1.3-2.8-1.5-4.1c-0.3-2.7,0.8-5,1.7-6.5c0.2-0.4,0.4-0.7,0.6-1c0.2-0.3,0.4-0.5,0.5-0.7c0.3-0.4,0.4-0.7,0.3-0.8
			s-0.4,0-0.8,0.3c-0.2,0.1-0.5,0.3-0.8,0.5c-0.3,0.2-0.6,0.5-0.9,0.9c-0.4,0.3-0.7,0.8-1.1,1.2c-0.2,0.2-0.3,0.5-0.5,0.8
			c-0.2,0.3-0.4,0.5-0.5,0.9c-0.7,1.2-1.1,2.8-1.2,4.6c-0.1,1.8,0.4,3.7,1.2,5.6c0.8,1.8,2,3.6,3.4,5.2c0.1,0.1,0.3,0.3,0.4,0.4
			c-0.1-0.1-0.3-0.1-0.4-0.1c-8.1-2.8-14.1-9.9-17.4-17.7c-4.3-10.5-1.4-19.8,1.8-29.1c-0.1,0-0.1,0-0.2,0c-2.1,0-4.4,0-6.9-0.1
			c-0.9,0-1.9-0.1-2.8-0.1c0.5,1.5,0.8,3.3,1,6c0.7,7.5-1.6,15.2-2,22.7c-0.4,9.4,1.9,18.6,5.8,27.2c1.9,4.2,4.3,8.3,6.7,12.2
			c2,3.3,6.7,11.7,6.7,11.7s2.9,19.5,8.9,43.8c10.6,43.6,27,102,26.4,85.2c-3.8-106,45.9-109.7,57.2-123.2
			c3.6,31.1,16.4,58.6,34.7,78.4c-3.1-4.9-5.6-10-7.9-15.2C250.8,341.5,246.5,330.5,243.7,320.6z"/>
		<path class="st0" d="M132.5,182.9c-0.2,2.8-2.8,5.4-4.7,7.8c1.1,0,2.2,0,3.3-0.1C131.9,188.1,132.3,185.6,132.5,182.9z"/>
		<path class="st0" d="M105.1,138.2c-3.8,1.1-7.3,2.2-9.3,5.8c2.4,3.2,5.1,6,7.9,8.1c-0.5-5.9,3.3-11.2,6.3-15
			C108.1,137.4,106.4,137.8,105.1,138.2z"/>
		<path class="st0" d="M177.6,125c-1,1.2-2.1,2.5-3.2,4c0.9,0.2,1.7,0.4,2.5,0.6c0.8-1.3,1.5-2.4,2.1-3.5c1.7-2.8,2.7-4.8,2.4-5
			C181.2,120.9,179.7,122.5,177.6,125z"/>
		<path class="st0" d="M278.4,138.2c-1.7-0.5-3.9-1-6.3-1.4c2.9,5.7,6.5,12.8,6.7,17c3.2-2.5,6.3-5.8,9-9.7
			C285.8,140.5,282.2,139.4,278.4,138.2z"/>
		<path class="st0" d="M123.9,183.9c-1.9-5-5.5-3.1-9.6-3.7c-4-0.6-7.8-2.7-9.7-6.2c-0.1-1.4,0-2.7,0.7-3.6c1.2,1.3,2,2.8,3.7,3.7
			c4.1,2.3,12.1,3.6,13.1-2.8l0.3-2.1l0.9,1.9c1.5,3.1,2.1,6.4,2.4,7.4c0,0.2,0.1,0.3,0.1,0.3c0.1,0.3,0.2,0.7,0.5,1.5
			c0.4,1.4,1,3.4,1.6,5.1c0.3,1.1,0.6,1.6,0.7,2c0.1-0.4,0.2-1.1,0.3-2.3c0.1-0.6-0.2-6.1-0.3-7c-0.1-0.2-0.1-0.4-0.2-0.7
			c-0.3-1.7-1.3-6.8-4.8-11.4c-1.5-1.9-3.5-3.2-5.8-4l-2.4-0.8l2.5-0.5c1.4-0.3,2.9-0.6,4.2-0.8c3.1,0.9,6,2.2,8.2,4.9
			c2.7,3.3,3.9,7.5,7.5,10.1c-2.7-4.8,0.4-8.1,3.3-11.6c0.7-0.8,1-1.6,1.2-2.4c0.1,0,0.1,0,0.2,0l-0.1-0.2c0-0.1,0-0.1-0.1-0.2
			c0.1-1.8-0.7-3.6-1.9-5.3c-2.3-4.9-6-9.3-10.4-12.6c-3.1-2.4-6.4-3.6-9.9-3.7c-4.2,0.3-7.1,3.1-9.4,5.8
			c-4.2,5.7-7.2,12.7-8.6,19.8l-0.1,0.3L102,165c-0.4,0.3-0.9,0.6-1.3,1c-3.7,2.7-6.3,4.4-8,5.5c2.1-0.8,5.1-2.2,8.1-4l1.2-0.7
			l-0.1,1.3c-0.5,5.3,0,10.2,1.6,14.2c0.1,0.3,0.2,0.6,0.3,0.9c3.2,3.5,6.2,5,7.6,5.5c1.6,0.6,7,1.7,14.1,2
			C125.2,188.4,124.7,186.1,123.9,183.9z M106.4,161.1c1.6-5.3,4.1-10.3,7.3-14.5c1.9-2.7,4.2-4.1,7-4.1c2.6,0,5.4,1.2,8.3,3.6
			c0.9,0.7,1.7,1.4,2.4,2.2c0.7,1.6,0.9,3.3,0,5.1c-0.6,1.3-2.4,2.2-4,2.8c-3.5,0.4-12.5,2-20.1,5.7l-1.3,0.6L106.4,161.1z"/>
	</g>
	<path class="st1" d="M309,138.2c-0.1-2.5-2-4.6-4.6-5.1c-36.3-7.2-60.4-9.2-93.3-0.8c-9,2.3-12.9,2.4-20.6,2.4
		c-7.7,0.1-11.6-0.1-20.6-2.4c-33.3-8.6-57.6-6.3-93.3,0.8c-2.6,0.5-4.5,2.6-4.6,5.1c-0.4,8.6-1,10.3,1.3,12.4
		c2.1,1.9,5.3,5.3,6.4,7.6c1.6,3.6,7.1,40.5,39.6,41.2c18.5,0.4,28.6-0.7,35.6-4.4c0,0,0-0.1-0.1-0.1c-1.1-2-2.8-3.5-4.1-5.4
		c-13.6,8-36.4,5.1-41.9,3.1c-5.7-2.1-15.7-9.5-18.9-30s3.6-24.3,12.8-27.1c9.2-2.8,29.6-4.1,49.8-0.3c0,0,19.6,2.7,19.4,13.5
		c0,1.6-1.3,3.7-1.6,5.7c7-5.9,15.9-10.5,23.8-10.5c7.6,0,17.3,4,22.4,9.4c-0.1-1.3-0.8-3.5-0.8-4.6c-0.1-10.8,12.4-13.5,12.4-13.5
		c20.2-3.8,40.6-2.5,49.8,0.3c9.2,2.8,16,6.6,12.8,27.1c-3.2,20.5-13.1,27.9-18.9,30c-5.1,1.9-25,4.5-38.7-1.5
		c-0.5,0.6-1.1,1.2-1.6,1.7c-1.4,1.2-2.6,2.2-3.5,3.2c6.9,3,16.8,3.8,33.5,3.4c32.5-0.7,38-37.7,39.6-41.2c1-2.4,4.3-5.7,6.4-7.6
		C310,148.5,309.4,147,309,138.2z"/>
	<path class="st0" d="M208.8,186.2c8.2-4.5,13.5,0.7,15.7-5.4c1.8-4.8-1.8-6.5-5.9-5.8c-8.3,1.4-22.9,13.6-25.4,22.8
		c-2.5-9.2-17.1-21.4-25.4-22.8c-4.1-0.7-7.7,1-5.9,5.8c2.3,6,7.6,0.8,15.7,5.4c7,3.9,13.7,10.6,15.5,12.4c0,0.2,0.4,0.2,0.4,0
		C195.1,196.7,201.8,190.1,208.8,186.2z"/>
	<path class="st0" d="M227.9,192.7c1-0.7,2.1-1.3,3-2.2c1.5-1.4,2.6-3.2,3.4-5.1c2.3-5.8,0.5-12.2-3.4-16.9c-1.4-1.7-2.9-3-4.1-4.1
		c-4.1-3.5-8.2-6.9-12.2-10.4c-0.3-0.2-3.6-2.3-3.6-2.3s1.6,2.6,1.7,2.8c2,2.8,4.6,6.2,7.3,8.5c0.6,0.5,2.3,1.8,4.7,3.8
		c1.2,1,2.5,2.2,3.8,3.7c1.3,1.5,2.4,3.2,3.1,5.4c1.4,4.1,0.8,8.6-2.1,12c-2.8,3.3-6.9,4.8-11,5.6c-0.8,0.1-1.5,0.3-2.2,0.4
		c-1.5,0.3-3.1,0.6-4.6,0.9c-3.1,0.7-6.2,1.6-9,3.2c-2.8,1.6-5.1,3.9-6.6,6.5c-1.4,2.5-2.4,5.2-2.9,8c-0.1,0.7-0.2,1.3-0.3,2
		c-0.3-1.4-0.6-2.8-1.1-4.2c-1-2.9-2.4-5.9-4.7-8.4c-1.1-1.3-2.4-2.4-3.9-3.4c-0.4-0.2-0.8-0.5-1.2-0.7c-7.5-4.2-17.2-2.2-24.1-7.7
		c-4.6-3.7-6.3-10.2-4.1-15.7c1.1-2.7,2.8-5,4.7-6.8c2.5-2.4,5.6-3.6,8.6-5.4c4.2-2.6,8.1-6.4,10.6-10.7
		c-3.4,3.1-14.6,9.4-16.2,10.4c-5.9,3.7-11,9.3-11.4,16.6c-0.2,4.5,1.7,9.2,4.8,12.4c0.4,0.4,0.8,0.8,1.1,1.3c0.3,0.5,0.5,1,0.7,1.5
		c1.9,5.6,3.2,10.4,2.6,16.4c-0.3,2.9-1.2,5.8-2.3,8.6c0.3-0.8-2.6,6.3-2.5,6.4c0.1,0.1,1.2-1.7,2.7-4.4c1.5-2.8,1.8-3.6,3.2-7
		c0.6-1.5,1.4-3.3,2.4-4.5c0.9-1,1.9-1.9,2.9-2.7c1-0.8,2.1-1.5,3.3-2.1c0.4-0.2,0.8-0.4,1.2-0.5c4.3-1.6,9.5-1.1,13.6,0.7
		c1.4,0.6,2.8,1.3,3.9,2.3c1.2,1.1,1.9,2.5,2.5,4c1,2.7,1.6,5.4,1.9,8c0.1,0.5,0.5,14.9,0.5,15.5c0,1.7,0.2,2.4,0.3,2
		c0.1-0.1,0.1-0.6,0.1-1.4c0.1-0.7,0.1-1.6,0.2-2.6c0.1-2.5,0.3-11.9,0.3-12.2c0.1-2.2,0.4-4.7,1-7.2c0.3-1.2,0.5-2.3,1-3.5
		c0.6-1.3,1.5-2.3,2.7-3c1-0.7,2.1-1.2,3.3-1.6c2.3-0.8,4.8-1.2,7.3-1.1c1.8,0.1,3.5,0.4,5.1,1.1c3,1.2,5.9,4.4,8.4,8
		c2.3,3.4,3.4,7.7,5.4,10.4c-2.1-5.7-4.3-15.4-3.8-21.4c0.2-2.7,0.9-6.1,2.8-8.1C227.1,193.3,227.5,192.9,227.9,192.7z"/>
	<text transform="matrix(1 0 0 1 20.0671 68.9193)" class="st2 st3">camel</text>
	<text transform="matrix(1 0 0 1 166.4371 68.9193)" class="st1 st2 st3">C</text>
	<text transform="matrix(1 0 0 1 195.7171 68.9193)" class="st2 st3">ase ltd</text>
</g>
<g id="Layer_2_1_">
</g>
</svg>
